<svg xmlns="http://www.w3.org/2000/svg" style="display:none">


  <symbol id="icon-zap" viewBox="0 0 24 24" fill="none" stroke="currentColor" stroke-width="2" stroke-linecap="round" stroke-linejoin="round">
    <polygon points="13 2 4 14 11 14 10 22 20 9 13 9 13 2"></polygon>
  </symbol>

  <symbol id="icon-phone" viewBox="0 0 24 24" fill="none" stroke="currentColor" stroke-width="2" stroke-linecap="round" stroke-linejoin="round">
    <path d="M5 4h4l2 5-2.5 1.5a11 11 0 0 0 5 5L15 13l5 2v4a2 2 0 0 1-2 2A16 16 0 0 1 3 6a2 2 0 0 1 2-2Z"></path>
  </symbol>

  <symbol id="icon-mail" viewBox="0 0 24 24" fill="none" stroke="currentColor" stroke-width="2" stroke-linecap="round" stroke-linejoin="round">
    <rect x="3" y="5" width="18" height="14" rx="2"></rect>
    <path d="m4 7 8 6 8-6"></path>
  </symbol>

  <symbol id="icon-map-pin" viewBox="0 0 24 24" fill="none" stroke="currentColor" stroke-width="2" stroke-linecap="round" stroke-linejoin="round">
    <path d="M12 22s7-6.2 7-12a7 7 0 0 0-14 0c0 5.8 7 12 7 12Z"></path>
    <circle cx="12" cy="10" r="2.5"></circle>
  </symbol>

  <symbol id="icon-clock" viewBox="0 0 24 24" fill="none" stroke="currentColor" stroke-width="2" stroke-linecap="round" stroke-linejoin="round">
    <circle cx="12" cy="12" r="9"></circle>
    <path d="M12 7v5l3.5 2"></path>
  </symbol>

  <symbol id="icon-star" viewBox="0 0 24 24" fill="currentColor" stroke="currentColor" stroke-width="1">
    <polygon points="12 2.5 15 9 22 9.9 17 14.6 18.2 21.5 12 18.1 5.8 21.5 7 14.6 2 9.9 9 9"></polygon>
  </symbol>

  <symbol id="icon-menu" viewBox="0 0 24 24" fill="none" stroke="currentColor" stroke-width="2" stroke-linecap="round">
    <line x1="3" y1="6" x2="21" y2="6"></line>
    <line x1="3" y1="12" x2="21" y2="12"></line>
    <line x1="3" y1="18" x2="21" y2="18"></line>
  </symbol>

  <symbol id="icon-x" viewBox="0 0 24 24" fill="none" stroke="currentColor" stroke-width="2" stroke-linecap="round">
    <line x1="5" y1="5" x2="19" y2="19"></line>
    <line x1="19" y1="5" x2="5" y2="19"></line>
  </symbol>

  <symbol id="icon-chevron-down" viewBox="0 0 24 24" fill="none" stroke="currentColor" stroke-width="2" stroke-linecap="round" stroke-linejoin="round">
    <polyline points="6 9 12 15 18 9"></polyline>
  </symbol>

  <symbol id="icon-check-circle" viewBox="0 0 24 24" fill="none" stroke="currentColor" stroke-width="2" stroke-linecap="round" stroke-linejoin="round">
    <circle cx="12" cy="12" r="9"></circle>
    <polyline points="8 12.5 11 15.5 16 9"></polyline>
  </symbol>

  <symbol id="icon-alert-triangle" viewBox="0 0 24 24" fill="none" stroke="currentColor" stroke-width="2" stroke-linecap="round" stroke-linejoin="round">
    <path d="M12 3 2 20h20L12 3Z"></path>
    <line x1="12" y1="10" x2="12" y2="14.5"></line>
    <circle cx="12" cy="17.2" r="0.6" fill="currentColor" stroke="none"></circle>
  </symbol>

  <symbol id="icon-plug" viewBox="0 0 24 24" fill="none" stroke="currentColor" stroke-width="2" stroke-linecap="round" stroke-linejoin="round">
    <path d="M9 3v5M15 3v5M7 8h10v4a5 5 0 0 1-10 0Z"></path>
    <line x1="12" y1="17" x2="12" y2="21"></line>
  </symbol>

  <symbol id="icon-wrench" viewBox="0 0 24 24" fill="none" stroke="currentColor" stroke-width="2" stroke-linecap="round" stroke-linejoin="round">
    <path d="M14.7 6.3a4 4 0 0 0-5.4 5l-6 6 2.4 2.4 6-6a4 4 0 0 0 5-5.4l-2.6 2.6-2-2 2.6-2.6Z"></path>
  </symbol>

  <symbol id="icon-shield-check" viewBox="0 0 24 24" fill="none" stroke="currentColor" stroke-width="2" stroke-linecap="round" stroke-linejoin="round">
    <path d="M12 3 5 6v5c0 5 3 8.5 7 10 4-1.5 7-5 7-10V6l-7-3Z"></path>
    <polyline points="9 12 11.2 14.2 15.5 9.8"></polyline>
  </symbol>

  <symbol id="icon-panel" viewBox="0 0 24 24" fill="none" stroke="currentColor" stroke-width="2" stroke-linecap="round" stroke-linejoin="round">
    <rect x="4" y="3" width="16" height="18" rx="1.5"></rect>
    <line x1="8" y1="8" x2="8" y2="8.01"></line>
    <line x1="12" y1="8" x2="12" y2="8.01"></line>
    <line x1="16" y1="8" x2="16" y2="8.01"></line>
    <line x1="7" y1="13" x2="17" y2="13"></line>
    <line x1="7" y1="17" x2="17" y2="17"></line>
  </symbol>

  <symbol id="icon-lightbulb" viewBox="0 0 24 24" fill="none" stroke="currentColor" stroke-width="2" stroke-linecap="round" stroke-linejoin="round">
    <path d="M9 18h6M10 21h4M7 10a5 5 0 1 1 10 0c0 2-1 3-2 4.5-.5.8-.7 1.5-.7 2.5h-4.6c0-1-.2-1.7-.7-2.5C8 13 7 12 7 10Z"></path>
  </symbol>

  <symbol id="icon-message" viewBox="0 0 24 24" fill="none" stroke="currentColor" stroke-width="2" stroke-linecap="round" stroke-linejoin="round">
    <path d="M4 5h16v11H8l-4 4V5Z"></path>
  </symbol>

  <symbol id="icon-users" viewBox="0 0 24 24" fill="none" stroke="currentColor" stroke-width="2" stroke-linecap="round" stroke-linejoin="round">
    <circle cx="9" cy="8" r="3"></circle>
    <path d="M3 20c0-3.3 2.7-5.5 6-5.5s6 2.2 6 5.5"></path>
    <circle cx="17.5" cy="9" r="2.3"></circle>
    <path d="M15.7 14.7c2.6.3 4.3 2.3 4.3 5.3"></path>
  </symbol>

  <symbol id="icon-send" viewBox="0 0 24 24" fill="none" stroke="currentColor" stroke-width="2" stroke-linecap="round" stroke-linejoin="round">
    <path d="M21 3 3 10.5l7 2.5 2 7L21 3Z"></path>
    <line x1="10.5" y1="13.5" x2="21" y2="3"></line>
  </symbol>

  <symbol id="icon-external-link" viewBox="0 0 24 24" fill="none" stroke="currentColor" stroke-width="2" stroke-linecap="round" stroke-linejoin="round">
    <path d="M14 4h6v6"></path>
    <line x1="20" y1="4" x2="10" y2="14"></line>
    <path d="M18 13v6a2 2 0 0 1-2 2H5a2 2 0 0 1-2-2V8a2 2 0 0 1 2-2h6"></path>
  </symbol>

  <symbol id="icon-image" viewBox="0 0 24 24" fill="none" stroke="currentColor" stroke-width="2" stroke-linecap="round" stroke-linejoin="round">
    <rect x="3" y="4" width="18" height="16" rx="1.5"></rect>
    <circle cx="9" cy="10" r="1.6"></circle>
    <path d="m4 18 5.5-5.5c.8-.8 2-.8 2.8 0L18 18"></path>
  </symbol>
</svg>