<svg xmlns="http://www.w3.org/2000/svg" viewBox="0 0 800 600" width="800" height="600" role="img" aria-hidden="true">
  <rect width="800" height="600" fill="#E7EEF7"></rect>
  <g stroke="#C9D6E3" stroke-width="1" opacity="0.5">
    <line x1="0" y1="0" x2="-600" y2="600"></line>
    <line x1="40" y1="0" x2="-560" y2="600"></line>
    <line x1="80" y1="0" x2="-520" y2="600"></line>
    <line x1="120" y1="0" x2="-480" y2="600"></line>
    <line x1="160" y1="0" x2="-440" y2="600"></line>
    <line x1="200" y1="0" x2="-400" y2="600"></line>
    <line x1="240" y1="0" x2="-360" y2="600"></line>
    <line x1="280" y1="0" x2="-320" y2="600"></line>
    <line x1="320" y1="0" x2="-280" y2="600"></line>
    <line x1="360" y1="0" x2="-240" y2="600"></line>
    <line x1="400" y1="0" x2="-200" y2="600"></line>
    <line x1="440" y1="0" x2="-160" y2="600"></line>
    <line x1="480" y1="0" x2="-120" y2="600"></line>
    <line x1="520" y1="0" x2="-80" y2="600"></line>
    <line x1="560" y1="0" x2="-40" y2="600"></line>
    <line x1="600" y1="0" x2="0" y2="600"></line>
    <line x1="640" y1="0" x2="40" y2="600"></line>
    <line x1="680" y1="0" x2="80" y2="600"></line>
    <line x1="720" y1="0" x2="120" y2="600"></line>
    <line x1="760" y1="0" x2="160" y2="600"></line>
    <line x1="800" y1="0" x2="200" y2="600"></line>
    <line x1="840" y1="0" x2="240" y2="600"></line>
    <line x1="880" y1="0" x2="280" y2="600"></line>
    <line x1="920" y1="0" x2="320" y2="600"></line>
    <line x1="960" y1="0" x2="360" y2="600"></line>
    <line x1="1000" y1="0" x2="400" y2="600"></line>
    <line x1="1040" y1="0" x2="440" y2="600"></line>
    <line x1="1080" y1="0" x2="480" y2="600"></line>
    <line x1="1120" y1="0" x2="520" y2="600"></line>
    <line x1="1160" y1="0" x2="560" y2="600"></line>
    <line x1="1200" y1="0" x2="600" y2="600"></line>
    <line x1="1240" y1="0" x2="640" y2="600"></line>
    <line x1="1280" y1="0" x2="680" y2="600"></line>
    <line x1="1320" y1="0" x2="720" y2="600"></line>
    <line x1="1360" y1="0" x2="760" y2="600"></line>
  </g>
  <rect width="800" height="600" fill="#E7EEF7" opacity="0.55"></rect>
  <circle cx="400" cy="290" r="132" fill="none" stroke="#0F2A4A" stroke-width="2" opacity="0.9"></circle>
  <g transform="translate(400 290) scale(2.2)" fill="none" stroke="#0F2A4A" stroke-width="3.2" stroke-linecap="round" stroke-linejoin="round">
    <path d="M-14 -40v22M14 -40v22M-30 -18h60v18a30 30 0 0 1-60 0Z"></path><line x1="0" y1="30" x2="0" y2="46"></line>
  </g>
  <g transform="translate(766 570)" fill="none" stroke="#0F2A4A" stroke-width="1.6" stroke-linecap="round" stroke-linejoin="round" opacity="0.65">
    <rect x="-14" y="-10" width="28" height="20" rx="2"></rect>
    <circle cx="-6" cy="-3" r="2.2"></circle>
    <path d="m-11 6 8-8 4.5 4.5 3-3 5.5 5.5"></path>
  </g>
</svg>